<svg width="177" height="24" viewBox="0 0 177 24" fill="none" xmlns="http://www.w3.org/2000/svg">
<path fill-rule="evenodd" clip-rule="evenodd" d="M0 13.7703H3.76704C2.71325 13.1445 1.8543 12.3424 1.25982 11.3193C0.63262 10.2398 0.360966 9.01951 0.360966 7.7019C0.360966 4.96652 1.91765 2.96004 4.25966 1.72718C6.52738 0.533431 9.60727 0 13.1001 0C17.0956 0 20.3969 0.600426 22.7918 1.91941C24.3563 2.78109 25.5219 3.94802 26.2145 5.38639V0.547528H36.2525V5.91958L42.0805 0.547528H71.6515H79.3254H89.3634H97.0373H107.075V7.52852H115.106V0.547528H133.918V11.9726C133.918 12.9396 134.133 13.659 134.548 14.1287C134.93 14.5608 135.726 15.057 137.523 15.057C139.314 15.057 140.111 14.5573 140.495 14.1208C140.914 13.6452 141.127 12.9226 141.127 11.9726V0.547528H166.822C169.56 0.547528 171.695 1.05993 173.16 2.24367C174.702 3.48884 175.208 5.2279 175.208 6.96274C175.208 8.48756 174.753 9.80279 173.913 10.8588C173.806 10.9938 173.693 11.1231 173.576 11.2467C173.899 11.4616 174.205 11.7035 174.49 11.9761C175.627 13.0652 176.303 14.5462 176.303 16.4076C176.303 18.3265 175.727 20.1814 174.208 21.5277C172.723 22.8448 170.582 23.4525 167.917 23.4525H149.894V18.2687C149.364 19.3067 148.655 20.2318 147.746 21.0237C145.37 23.0929 141.905 24 137.523 24C133.131 24 129.664 23.1015 127.289 21.0341C126.38 20.2422 125.672 19.3163 125.144 18.277V23.4525H115.106V16.4715H107.075V23.4525H43.6567L38.5073 16.5702L36.2525 18.5093V23.4525H26.2145V20.4751C25.5606 21.2756 24.7315 21.9041 23.7835 22.3902C21.4212 23.6016 18.1772 24 14.4689 24C10.4413 24 7.00133 23.5288 4.48293 22.2359C3.19708 21.5757 2.12146 20.6862 1.35098 19.5163C0.579199 18.3444 0.170604 16.9777 0.0894563 15.4521L0 13.7703Z" fill="#0D0D10"/>
</svg>
